<?xml version="1.0" standalone="no"?><!DOCTYPE svg PUBLIC "-//W3C//DTD SVG 1.1//EN" "http://www.w3.org/Graphics/SVG/1.1/DTD/svg11.dtd"><svg t="1552992827870" class="icon" style="" viewBox="0 0 1024 1024" version="1.1" xmlns="http://www.w3.org/2000/svg" p-id="2124" xmlns:xlink="http://www.w3.org/1999/xlink" width="16" height="16"><defs><style type="text/css"></style></defs><path d="M763.4 451.8c0-195.2-105-261.6-203.2-276.4 0-1 0.2-2 0.2-3.2 0-24.6-21.8-44.2-48.4-44.2-26.6 0-47.6 19.6-47.6 44.2 0 1.2 0 2.2 0.2 3.2-98.4 15-204 81.6-204 276.8 0 227.6-56.6 252-132.6 316l768 0C820.4 704 763.4 679.4 763.4 451.8zM214.4 736c17.2-18 32.8-36.8 45.4-63.6 24-50.6 34.8-118.4 34.8-220.4 0-92.8 25-160.8 74.2-202.4 45.8-38.6 103.4-46.6 143.6-46.6 40.2 0 97.8 8 143.2 46.6 49 41.4 74 109 74 201.8 0 167.6 29.8 234.6 80.6 284.6L214.4 736zM512.4 896c53.6 0 97.6-39.8 103.4-86L409 810C414.6 856.2 458.8 896 512.4 896z" fill="#555555" p-id="2125"></path></svg>
