<?xml version="1.0" standalone="no"?><!DOCTYPE svg PUBLIC "-//W3C//DTD SVG 1.1//EN" "http://www.w3.org/Graphics/SVG/1.1/DTD/svg11.dtd"><svg t="1561534643758" class="icon" viewBox="0 0 1024 1024" version="1.1" xmlns="http://www.w3.org/2000/svg" p-id="2869" xmlns:xlink="http://www.w3.org/1999/xlink" width="16" height="16"><defs><style type="text/css"></style></defs><path d="M845.24623107 410.96011352l-376.81388854 370.78857422c-29.08952236 28.61879468-69.02678311 46.28846348-113.09051514 46.28846348s-84.00099278-17.66966879-113.11224103-46.31018937c-29.0228963-28.43846977-47.02859223-68.07011962-47.02859223-111.90645396 0-43.60821248 17.81812905-83.05446803 46.57090009-111.45672798L581.05937195 224.63813078c19.38456595-19.03405488 45.9785074-30.78341783 75.31642914-30.78341782s55.93186319 11.74936295 75.33236145 30.79935015c19.2723155 18.99349987 31.22155666 45.40421963 31.22155667 74.60526823s-11.94924116 55.61176837-31.22517765 74.60888923L392.88417053 709.44419157c-9.70495642 9.585464-23.04827572 15.50576985-37.774086 15.50576985s-28.06912958-5.92030584-37.77987957-15.51083923c-9.63833033-9.49928463-15.61295092-22.70428239-15.61295092-37.30553089s5.97462057-27.80624629 15.61222672-37.30408252L619.06520081 336.80167448l-37.54234315-37.07885742-301.26571654 298.02131653c-19.28824782 19.0094322-31.23748898 45.41942776-31.23748899 74.62120055s11.94924116 55.61176837 31.22517764 74.60888924c19.39760149 19.04636622 45.99081874 30.79572915 75.32874049 30.79572915s55.93186319-11.74936295 75.33236145-30.79935014L770.1615448 411.42287504c28.79260182-28.49206029 46.62159383-68.0136323 46.62159383-111.70005798s-17.82899201-83.20799768-46.6078341-111.68702245C741.02350127 159.12804555 700.89939785 141.27298248 656.60464716 141.27298248c-44.06228363 0-83.99882018 17.6682204-113.10934425 46.30729257L187.55999756 541.66236174C160.43087494 576.78950977 144.07562268 621.44418609 144.07562268 669.91827441c0 58.59183668 23.89486134 111.60229147 62.4706328 149.81958568 38.63515555 37.28887438 91.27699434 60.25314331 149.28295612 60.25314331 48.97305965 0 94.12308634-16.36973619 130.27569651-43.93554926l396.68294191-387.55444586-37.54234314-37.07885743z" fill="#555555" p-id="2870"></path></svg>
