<?xml version="1.0" standalone="no"?><!DOCTYPE svg PUBLIC "-//W3C//DTD SVG 1.1//EN" "http://www.w3.org/Graphics/SVG/1.1/DTD/svg11.dtd"><svg t="1553498015516" class="icon" style="" viewBox="0 0 1024 1024" version="1.1" xmlns="http://www.w3.org/2000/svg" p-id="2585" xmlns:xlink="http://www.w3.org/1999/xlink" width="16" height="16"><defs><style type="text/css"></style></defs><path d="M684.92244031 487.84190156c33.10307925-39.32133728 53.08796233-90.06498344 53.08796233-145.34762481C738.01040264 217.87972071 636.60624265 116.4921875 511.99168661 116.4921875H229.49323213v791.015625h339.0114465c124.61455605 0 226.00208925-101.38753321 226.00208925-226.00208925 0-82.06770502-43.9600916-154.05983613-109.58432757-193.66382169zM363.38529605 229.48491873h152.91261782c49.41353717 0 89.61607126 50.69376661 89.61607127 113.00935803s-40.20253487 113.00935802-89.61607126 113.00935723H363.38529605V229.48491873z m203.689516 565.01353575H363.38529605V568.49636601h203.689516c51.60821619 0 93.58977147 50.6771406 93.58977147 113.00935724 0 62.31559141-41.9815545 112.99273123-93.58977147 112.99273123z" fill="#555555" p-id="2586"></path></svg>
