<?xml version="1.0" standalone="no"?><!DOCTYPE svg PUBLIC "-//W3C//DTD SVG 1.1//EN" "http://www.w3.org/Graphics/SVG/1.1/DTD/svg11.dtd"><svg t="1553244748070" class="icon" style="" viewBox="0 0 1024 1024" version="1.1" xmlns="http://www.w3.org/2000/svg" p-id="2416" xmlns:xlink="http://www.w3.org/1999/xlink" width="16" height="16"><defs><style type="text/css"></style></defs><path d="M797.75862505 213.66998098h-75.5516112V178.54402787a35.24920193 35.24920193 0 1 0-70.37515505 0v35.12595311H370.08474103V178.54402787a35.24920193 35.24920193 0 1 0-70.37515503 0v35.12595311H224.15797479A81.83730818 81.83730818 0 0 0 141.21142578 294.15155072v543.40465568C141.21142578 862.45249599 164.87522573 882.78857422 194.08522903 882.78857422h633.74614177c29.21000331 0 52.87380325-20.33607823 52.87380325-45.23236782V294.15155072a81.83730818 81.83730818 0 0 0-82.94654901-80.48156974z m-121.7699703 377.75805675L489.26648324 767.55079855a35.24920193 35.24920193 0 0 1-49.29958319-0.98599198l-94.90169743-97.36667673a35.24920193 35.24920193 0 0 1 50.40882326-49.29958316l70.74490222 72.59363667 161.45613475-152.21246323a35.24920193 35.24920193 0 0 1 48.3135919 51.14831761zM211.58658082 294.15155072a12.3248956 12.3248956 0 0 1 12.32489561-10.1064147h75.42836238v35.24920193a35.24920193 35.24920193 0 0 0 70.37515504 0v-35.12595312h282.11686495v35.24920264a35.24920193 35.24920193 0 0 0 70.37515505 0v-35.24920264h75.42836238a12.3248956 12.3248956 0 0 1 12.3248956 10.1064147v130.76714491H211.58658082V294.15155072z" fill="#555555" p-id="2417"></path></svg>
