<?xml version="1.0" standalone="no"?><!DOCTYPE svg PUBLIC "-//W3C//DTD SVG 1.1//EN" "http://www.w3.org/Graphics/SVG/1.1/DTD/svg11.dtd"><svg t="1552053662499" class="icon" style="" viewBox="0 0 1024 1024" version="1.1" xmlns="http://www.w3.org/2000/svg" p-id="1234" xmlns:xlink="http://www.w3.org/1999/xlink" width="16" height="16"><defs><style type="text/css"></style></defs><path d="M644.38964844 541.32910156l-112.5-112.5a28.125 28.125 0 0 0-39.77050782 0l-112.49999999 112.5a28.125 28.125 0 1 0 39.77050781 39.77050782L483.875 516.61425781V828.40625a28.125 28.125 0 0 0 56.25 0V516.61425781l64.48535156 64.48535157a28.125 28.125 0 1 0 39.77050782-39.77050782z" fill="#555555" p-id="1235"></path><path d="M722.9375 729.96875H624.5a28.125 28.125 0 0 1 0-56.25h98.4375c69.78515625 0 126.5625-56.77734375 126.5625-126.5625a126.5625 126.5625 0 0 0-116.41113281-126.15820313 28.125 28.125 0 0 1-25.69921875-24.60937499C695.33984375 297.95117187 611.31640625 223.71875 512 223.71875s-183.33984375 74.23242188-195.38964844 172.66113281a28.125 28.125 0 0 1-25.69921875 24.609375A126.5625 126.5625 0 0 0 174.5 547.15625c0 69.78515625 56.77734375 126.5625 126.5625 126.5625h98.4375a28.125 28.125 0 0 1 0 56.25H301.0625c-100.80175781 0-182.8125-82.01074219-182.8125-182.8125a182.8828125 182.8828125 0 0 1 146.10058594-179.11230469C288.7578125 252.28320312 391.58984375 167.46875 512 167.46875s223.2421875 84.81445313 247.64941406 200.57519531A182.8828125 182.8828125 0 0 1 905.75 547.15625c0 100.80175781-82.01074219 182.8125-182.8125 182.8125z" fill="#555555" p-id="1236"></path></svg>
