<?xml version="1.0" standalone="no"?><!DOCTYPE svg PUBLIC "-//W3C//DTD SVG 1.1//EN" "http://www.w3.org/Graphics/SVG/1.1/DTD/svg11.dtd"><svg t="1552130000476" class="icon" style="" viewBox="0 0 1024 1024" version="1.1" xmlns="http://www.w3.org/2000/svg" p-id="1817" xmlns:xlink="http://www.w3.org/1999/xlink" width="16" height="16"><defs><style type="text/css"></style></defs><path d="M512 116.4921875C293.54373169 116.4921875 116.4921875 293.54373169 116.4921875 512s177.05154419 395.5078125 395.5078125 395.5078125 395.5078125-177.05154419 395.5078125-395.5078125S730.45626831 116.4921875 512 116.4921875z m28.7361145 613.03710938c0 11.27815247-9.11521912 20.39337158-20.39337158 20.39337158h-38.46931458c-11.27815247 0-20.39337158-9.11521912-20.39337157-20.39337158v-43.10417175c0-11.27815247 9.11521912-20.39337158 20.39337157-20.39337159h38.46931458c11.27815247 0 20.39337158 9.11521912 20.39337158 20.39337159v43.10417175z m24.87373352-188.02070618c-22.71080017 18.07594299-33.21647644 39.24179078-31.67152404 63.49754333 0 11.27815247-9.11521912 20.39337158-20.39337159 20.39337159h-24.87373351c-11.27815247 0-20.39337158-9.11521912-20.39337159-20.39337159v-2.31742859c0-45.2671051 18.07594299-83.89091492 54.38232422-115.56243896 31.67152404-27.19116211 46.8120575-55.15480042 45.2671051-83.89091492-1.54495239-34.76142883-18.84841919-52.83737182-52.06489563-54.38232422-28.89060974 0-49.28398132 21.16584778-61.0256195 63.3430481-3.08990479 11.12365723-14.67704773 17.3034668-25.64620973 13.90457154l-33.52546691-10.50567628c-10.50567627-3.24440003-16.37649536-14.21356201-13.59558106-24.87373352 20.54786682-77.55661011 64.88800049-116.4894104 133.02040101-116.79840088h1.54495239c79.56504822 4.78935242 121.5877533 47.73902893 126.06811524 129.15802003 1.39045716 51.60140992-24.25575256 97.64099122-77.0931244 138.42773437z" fill="#555555" p-id="1818"></path></svg>
