<?xml version="1.0" standalone="no"?><!DOCTYPE svg PUBLIC "-//W3C//DTD SVG 1.1//EN" "http://www.w3.org/Graphics/SVG/1.1/DTD/svg11.dtd"><svg t="1552130003280" class="icon" style="" viewBox="0 0 1024 1024" version="1.1" xmlns="http://www.w3.org/2000/svg" p-id="1941" xmlns:xlink="http://www.w3.org/1999/xlink" width="16" height="16"><defs><style type="text/css"></style></defs><path d="M512 751.371875m-42.1875 0a1.31835938 1.31835938 0 1 0 84.375 0 1.31835938 1.31835938 0 1 0-84.375 0ZM512 905.75C294.875 905.75 118.25 729.125 118.25 512S294.875 118.25 512 118.25s393.75 176.625 393.75 393.75S729.125 905.75 512 905.75zM512 174.753125C326.0375 174.753125 174.753125 326.0375 174.753125 512c0 185.934375 151.284375 337.246875 337.246875 337.246875 185.934375 0 337.246875-151.3125 337.246875-337.246875C849.246875 326.0375 697.934375 174.753125 512 174.753125zM512 654.115625c-15.525 0-28.125-12.6-28.125-28.125l0-47.55937501c0-46.0125 35.15625001-81.16875001 66.20625001-112.19062499C572.834375 443.459375 596.375 419.946875 596.375 401.1875c0-46.884375-37.85625001-85.021875-84.375-85.021875-47.30625001 0-84.375 36.50625001-84.375 83.109375 0 15.525-12.6 28.125-28.125 28.125s-28.125-12.6-28.125-28.125c0-76.8375 63.084375-139.359375 140.625-139.359375s140.625 63.365625 140.625 141.271875c0 42.103125-31.921875 73.996875-62.775 104.85C565.38125001 530.45 540.125 555.70625001 540.125 578.403125l0 47.559375C540.125 641.4875 527.525 654.115625 512 654.115625z" fill="#555555" p-id="1942"></path></svg>
