<svg xmlns="http://www.w3.org/2000/svg" xmlns:xlink="http://www.w3.org/1999/xlink" width="16" height="16" class="icon" p-id="1451" t="1552115445364" version="1.1" viewBox="0 0 1024 1024"><defs><style type="text/css"/></defs><path fill="#555" d="M372.9 175.6h485.8v97.7H372.9zM372.9 463.1h485.8v97.8H372.9zM372.9 750.7h485.8v97.7H372.9zM270.6 451.2c-21.7-12.5-48.5-12.5-70.2 0-21.8 12.6-35.1 35.7-35.1 60.8s13.4 48.2 35.1 60.8c21.7 12.5 48.5 12.5 70.2 0 21.7-12.5 35.1-35.7 35.1-60.8s-13.4-48.2-35.1-60.8zM270.6 174.6c-21.7-12.5-48.5-12.5-70.2 0a70.21 70.21 0 0 0-35.1 60.8c0 25.1 13.4 48.2 35.1 60.8 21.7 12.5 48.5 12.5 70.2 0 21.7-12.5 35.1-35.7 35.1-60.8 0-25.1-13.4-48.2-35.1-60.8zM270.6 727.8c-21.7-12.5-48.5-12.5-70.2 0-21.8 12.5-35.1 35.7-35.1 60.8s13.4 48.2 35.1 60.8c21.7 12.5 48.5 12.5 70.2 0 21.7-12.5 35.1-35.7 35.1-60.8s-13.4-48.2-35.1-60.8z" p-id="1452"/></svg>