<?xml version="1.0" standalone="no"?><!DOCTYPE svg PUBLIC "-//W3C//DTD SVG 1.1//EN" "http://www.w3.org/Graphics/SVG/1.1/DTD/svg11.dtd"><svg t="1552124843511" class="icon" style="" viewBox="0 0 1024 1024" version="1.1" xmlns="http://www.w3.org/2000/svg" p-id="2102" xmlns:xlink="http://www.w3.org/1999/xlink" width="16" height="16"><defs><style type="text/css"></style></defs><path d="M511.50623244 116.4921875C293.65598638 116.4921875 117.01887259 293.12930129 117.01887259 510.97954736c0 217.85024606 176.63711379 394.48735986 394.48735985 394.48735985s394.48735986-176.63711379 394.48735986-394.48735985C905.9935923 293.12930129 729.3564785 116.4921875 511.50623244 116.4921875zM672.93530533 649.69531262c10.40203623 10.40203623 10.46787206 27.255969 0.26334254 37.52633433L665.75921698 694.66107784C655.48885164 704.93144319 638.76659053 704.79977152 628.43039013 694.3977353L511.44039661 576.94689252 394.1212255 693.73937856c-10.40203623 10.40203623-27.255969 10.46787206-37.52633435 0.26334254L349.15546027 686.56329021C338.88509492 676.29292486 338.95093076 659.57066375 349.41880282 649.23446258l117.45084277-116.98999273L350.07715955 414.92529873c-10.40203623-10.40203623-10.46787206-27.255969-0.26334254-37.52633435l7.43943088-7.43943088C367.52361324 359.68916816 384.24587435 359.82083904 394.58207476 370.22287604l116.98999274 117.45084278 117.25333606-116.79248604c10.40203623-10.40203623 27.255969-10.46787206 37.52633434-0.26334254l7.43943088 7.43943089c10.27036535 10.27036535 10.20452951 26.92679063-0.26334254 37.32882763L556.1428193 532.3761415 672.93530533 649.69531262z" fill="#555555" p-id="2103"></path></svg>
