<?xml version="1.0" standalone="no"?><!DOCTYPE svg PUBLIC "-//W3C//DTD SVG 1.1//EN" "http://www.w3.org/Graphics/SVG/1.1/DTD/svg11.dtd"><svg t="1552054541318" class="icon" style="" viewBox="0 0 1024 1024" version="1.1" xmlns="http://www.w3.org/2000/svg" p-id="1510" xmlns:xlink="http://www.w3.org/1999/xlink" width="16" height="16"><defs><style type="text/css"></style></defs><path d="M578.125023 903.359362c-16.842597 0-31.774681-6.377244-43.106773-18.398022L403.343301 753.130849c-11.643178-11.643178-17.775852-26.353205-17.775852-42.551118V470.559169l-246.596327-246.952438c-18.219967-17.087167-23.286356-41.329291-13.154602-65.8825 10.487865-24.086581 30.219255-37.084617 55.727209-37.084617h660.953474c25.197892 0 45.417399 13.354146 55.505151 36.640502l0.13303 0.3776c10.220782 24.575722 5.199419 48.839335-13.731746 66.571185l-245.974157 246.330268v372.405685c0 25.507954-12.93152 45.239344-36.484959 55.527664-8.665357 3.377934-16.309454 4.866844-23.819499 4.866844z m-396.581294-728.102826c-3.288906 0-3.822049 0-5.466501 3.777023l0.355087 0.311085 1.200338 5.688559L440.138322 447.984011v262.594697L574.213947 846.942445l16.798594 26.530237-16.798594-26.530237c3.777023-1.644453 9.643638-0.644683 9.643638-3.977591V447.984011l262.550694-262.950808 26.530237-16.909111-19.198248 14.891152c-1.599428-3.710508-7.954159-7.758708-11.243065-7.758708h-660.953474z" fill="#555555" p-id="1511"></path></svg>
