<svg xmlns="http://www.w3.org/2000/svg" xmlns:xlink="http://www.w3.org/1999/xlink" width="16" height="16" class="icon" p-id="3173" t="1553504056889" version="1.1" viewBox="0 0 1024 1024"><defs><style type="text/css"/></defs><path fill="#a7a7a7" d="M126.28571416 364.30357168v423.96428584A109.60714248 109.60714248 0 0 0 235.73214248 897.71428584h423.96428584A109.60714248 109.60714248 0 0 0 769.14285752 788.26785752V364.30357168A109.60714248 109.60714248 0 0 0 659.69642832 254.85714248H235.73214248A109.60714248 109.60714248 0 0 0 126.28571416 364.30357168z m64.28571416 42.4285708A87.75 87.75 0 0 1 278.16071416 319.14285752h339.10714336A87.75 87.75 0 0 1 704.85714248 406.73214248v339.10714336A87.75 87.75 0 0 1 617.26785752 833.42857168h-339.10714336A87.75 87.75 0 0 1 190.57142832 745.83928584z" p-id="3174"/><path fill="#a7a7a7" d="M825.55357168 732.98214248V260a61.875 61.875 0 0 0-61.55357168-61.55357168H287A36.16071416 36.16071416 0 0 1 291.01785752 126.28571416h472.98214248A134.67857168 134.67857168 0 0 1 897.71428584 260v472.98214248a36.16071416 36.16071416 0 1 1-72.16071416 0z" p-id="3175"/></svg>