<?xml version="1.0" standalone="no"?><!DOCTYPE svg PUBLIC "-//W3C//DTD SVG 1.1//EN" "http://www.w3.org/Graphics/SVG/1.1/DTD/svg11.dtd"><svg t="1552124858269" class="icon" style="" viewBox="0 0 1024 1024" version="1.1" xmlns="http://www.w3.org/2000/svg" p-id="2606" xmlns:xlink="http://www.w3.org/1999/xlink" width="16" height="16"><defs><style type="text/css"></style></defs><path d="M511.52665273 905.39633955c-217.26716573 0-394.0469666-176.75370352-394.04696659-394.0460666 0-217.2662666 176.77980088-394.04606661 394.04696659-394.0460666 217.29236308 0 394.04606661 176.75190352 394.04606748 394.0460666 0 217.29236308-176.75370352 394.04606661-394.04606748 394.0460666z m0-731.5496666c-186.11085586 0-337.5036 151.39364414-337.50359911 337.5036 0 186.08295849 151.39364414 337.5036 337.50359911 337.50359912 186.08205849 0 337.5027-151.39364414 337.5027-337.50359912 0-186.10995586-151.42064063-337.5036-337.5027-337.5036z" fill="#555555" p-id="2607"></path><path d="M469.11890234 327.5863543c0 23.42077646 18.98607393 42.40775039 42.40775039 42.40775039 23.41987734 0 42.40595039-18.98607393 42.4059504-42.40775039 0-23.42077646-18.98607393-42.40775039-42.4059504-42.40775039-23.42167646 0-42.40775039 18.98697305-42.40775039 42.40775039zM511.52665273 737.52194112c-15.60785185 0-28.2721333-12.63908408-28.2721333-28.27213331V454.80780547c0-15.60695185 12.66428144-28.2712333 28.2721333-28.2712333 15.60605185 0 28.2703333 12.66428144 28.27033418 28.2712333v254.44290234c0 15.63214922-12.66428144 28.2712333-28.27033418 28.27123331z" fill="#555555" p-id="2608"></path></svg>
