<svg xmlns="http://www.w3.org/2000/svg" xmlns:xlink="http://www.w3.org/1999/xlink" width="16" height="16" class="icon" p-id="2890" t="1552976837088" version="1.1" viewBox="0 0 1024 1024"><defs><style type="text/css"/></defs><path fill="#555" d="M885.23434707 305.1042752L374.49672734 305.1042752c-11.47711816 0-20.78131026-9.30419209-20.78131025-20.78131026l0-87.9486706c0-11.47711816 9.30419209-20.78131026 20.78131025-20.78131026l510.73761973 0c11.47711816 0 20.78131026 9.30419209 20.78131025 20.78131026l0 87.9486706C906.01655645 295.8000831 896.71236523 305.1042752 885.23434707 305.1042752z" p-id="2891"/><path fill="#555" d="M885.23434707 577.11315342L374.49672734 577.11315342c-11.47711816 0-20.78131026-9.30419209-20.78131025-20.78131025l0-87.94867061c0-11.47711816 9.30419209-20.78131026 20.78131025-20.78131025l510.73761973 0c11.47711816 0 20.78131026 9.30419209 20.78131025 20.78131025l0 87.9486706C906.01655645 567.80896133 896.71236523 577.11315342 885.23434707 577.11315342z" p-id="2892"/><path fill="#555" d="M885.23434707 849.12113164L374.49672734 849.12113164c-11.47711816 0-20.78131026-9.30419209-20.78131025-20.78131026l0-87.9486706c0-11.47711816 9.30419209-20.78131026 20.78131025-20.78131026l510.73761973 0c11.47711816 0 20.78131026 9.30419209 20.78131025 20.78131026l0 87.9486706C906.01655645 839.81694042 896.71236523 849.12113164 885.23434707 849.12113164z" p-id="2893"/><path fill="#555" d="M238.49633516 305.1042752l-97.92560654 0c-11.47711816 0-20.78131026-9.30419209-20.78131026-20.78131026l0-87.9486706c0-11.47711816 9.30419209-20.78131026 20.78131026-20.78131026l97.92560654 0c11.47711816 0 20.78131026 9.30419209 20.78131025 20.78131026l0 87.9486706C259.27854541 295.8000831 249.97435332 305.1042752 238.49633516 305.1042752z" p-id="2894"/><path fill="#555" d="M238.49633516 577.11315342l-97.92560654 0c-11.47711816 0-20.78131026-9.30419209-20.78131026-20.78131025l0-87.94867061c0-11.47711816 9.30419209-20.78131026 20.78131026-20.78131025l97.92560654 0c11.47711816 0 20.78131026 9.30419209 20.78131025 20.78131025l0 87.9486706C259.27854541 567.80896133 249.97435332 577.11315342 238.49633516 577.11315342z" p-id="2895"/><path fill="#555" d="M238.49633516 849.12113164l-97.92560654 0c-11.47711816 0-20.78131026-9.30419209-20.78131026-20.78131026l0-87.9486706c0-11.47711816 9.30419209-20.78131026 20.78131026-20.78131026l97.92560654 0c11.47711816 0 20.78131026 9.30419209 20.78131025 20.78131026l0 87.9486706C259.27854541 839.81694042 249.97435332 849.12113164 238.49633516 849.12113164z" p-id="2896"/></svg>