<?xml version="1.0" standalone="no"?><!DOCTYPE svg PUBLIC "-//W3C//DTD SVG 1.1//EN" "http://www.w3.org/Graphics/SVG/1.1/DTD/svg11.dtd"><svg t="1552054294529" class="icon" style="" viewBox="0 0 1024 1024" version="1.1" xmlns="http://www.w3.org/2000/svg" p-id="1450" xmlns:xlink="http://www.w3.org/1999/xlink" width="16" height="16"><defs><style type="text/css"></style></defs><path d="M817.61967357 853.57492884H206.38032643c-50.33735767 0-89.88813892-39.55078125-89.88813893-89.88813893V267.50426129c0-50.33735767 39.55078125-89.88813892 89.88813892-89.88813891h611.23934715c50.33735767 0 89.88813892 39.55078125 89.88813893 89.88813891V763.68678991c0 50.33735767-39.55078125 89.88813892-89.88813893 89.88813893zM206.38032643 249.52663367c-8.9888142 0-17.97762762 8.9888142-17.97762764 17.97762762V763.68678991c0 8.9888142 8.9888142 17.97762762 17.97762763 17.97762763h611.23934715c8.9888142 0 17.97762762-8.9888142 17.97762764-17.97762762V267.50426129c0-8.9888142-8.9888142-17.97762762-17.97762764-17.97762763H206.38032643z" fill="#555555" p-id="1451"></path><path d="M618.06800433 488.62908416c26.96644183 16.17986541 26.96644183 44.94406945 0 61.12393409l-147.41654858 93.48366492c-26.96644183 16.17986541-48.53959545 5.3932882-48.53959467-25.16867884v-197.75390625c0-30.56196705 21.57315363-41.34854425 48.53959467-25.16867883l147.41654858 93.48366491z" fill="#555555" p-id="1452"></path></svg>
