<?xml version="1.0" standalone="no"?><!DOCTYPE svg PUBLIC "-//W3C//DTD SVG 1.1//EN" "http://www.w3.org/Graphics/SVG/1.1/DTD/svg11.dtd"><svg t="1552054291178" class="icon" style="" viewBox="0 0 1024 1024" version="1.1" xmlns="http://www.w3.org/2000/svg" p-id="1326" xmlns:xlink="http://www.w3.org/1999/xlink" width="16" height="16"><defs><style type="text/css"></style></defs><path d="M626.6375 564.57500029l-177.90000029 102.0375C421.70000029 682.13750029 399.5 669.46249971 399.5 638.37500029V434.375c0-31.05 22.20000029-43.72499971 49.23749971-28.2375l177.90000029 102.07500029c27.15000029 15.525 27.15000029 40.87500029 0 56.39999942M871.92500029 174.5H152.07499971a33.975 33.975 0 0 0-33.82499971 34.12500029V852.875c0 18.86249971 15.11250029 34.16249971 33.82499971 34.16249971h719.85000058a34.01250029 34.01250029 0 0 0 33.82499971-34.16249971V208.62500029a33.975 33.975 0 0 0-33.82499971-34.12500029" fill="#555555" p-id="1327"></path></svg>
