<?xml version="1.0" standalone="no"?><!DOCTYPE svg PUBLIC "-//W3C//DTD SVG 1.1//EN" "http://www.w3.org/Graphics/SVG/1.1/DTD/svg11.dtd"><svg t="1553065772636" class="icon" style="" viewBox="0 0 1024 1024" version="1.1" xmlns="http://www.w3.org/2000/svg" p-id="2158" xmlns:xlink="http://www.w3.org/1999/xlink" width="16" height="16"><defs><style type="text/css"></style></defs><path d="M864.3124925 147.54022344c-20.12043844 0-36.44568938 16.32525187-36.44568938 36.44568937l0 101.43682594C755.49634906 184.2238325 639.13396344 123.24277719 512 123.24277719c-214.35706594 0-388.75914094 174.39919781-388.75914094 388.75914094s174.402075 388.75626281 388.75914094 388.75626281c158.00391375 0 299.11368094-94.38848438 359.45389031-240.45712969 3.84411375-9.3037725 3.53808094-19.26757687-0.022065-27.85663313-3.55918687-8.63510531-10.44060094-15.89738156-19.76547937-19.74149531-9.27691031-3.84603281-19.24071469-3.55918687-27.85663313 0.02398406-8.61112125 3.58413-15.87147937 10.464585-19.73957625 19.76643844-49.02468094 118.68784969-163.67750625 195.37345688-292.0691775 195.37345688-174.16415625 0-315.86680219-141.69976781-315.86680219-315.86392406s141.70264594-315.86680219 315.86680219-315.86680219c109.00513406 0 208.23641531 55.21632375 266.03722688 145.78467843L669.93292156 341.92075344c-20.12043844 0-36.44568938 16.32525187-36.44568937 36.44568937 0 20.11851938 16.32525187 36.44568938 36.44568937 36.44568938l194.37957094 0c20.12043844 0 36.44568938-16.32812906 36.44568937-36.44568938L900.75818187 183.98591375C900.75818187 163.86547531 884.43293094 147.54022344 864.3124925 147.54022344z" fill="#555555" p-id="2159"></path></svg>
