<svg xmlns="http://www.w3.org/2000/svg" xmlns:xlink="http://www.w3.org/1999/xlink" width="16" height="16" class="icon" p-id="37635" t="1576820210565" version="1.1" viewBox="0 0 1024 1024"><defs><style type="text/css"/></defs><path fill="#555" d="M950.628 233.373l-160-160C784.626 67.372 776.487 64 768 64L160 64c-52.935 0-96 43.065-96 96l0 704c0 52.935 43.065 96 96 96l704 0c52.935 0 96-43.065 96-96L960 256C960 247.513 956.629 239.374 950.628 233.373zM320 128l256 0 0 158.845c0 17.673 14.327 32 32 32s32-14.327 32-32L640 128l64 0 0 256L320 384 320 128zM768 896 256 896 256 704l512 0L768 896zM896 864c0 17.645-14.355 32-32 32l-32 0L832 702c0-34.187-27.813-62-62-62L254 640c-34.187 0-62 27.813-62 62l0 194-32 0c-17.645 0-32-14.355-32-32L128 160c0-17.645 14.355-32 32-32l96 0 0 258c0 34.187 27.813 62 62 62l388 0c34.187 0 62-27.813 62-62L768 141.255l128 128L896 864z" p-id="37636"/></svg>