<svg xmlns="http://www.w3.org/2000/svg" width="512" height="1024" class="icon"><defs><style type="text/css"/></defs><g><title>background</title><rect id="canvas_background" width="8" height="16" x="-1" y="-1" fill="none"/></g><g><title>Layer 1</title><path id="svg_1" fill="#555" d="m255.999999,347.205078c54.382325,0 98.876954,-44.494629 98.876954,-98.876953s-44.494629,-98.876953 -98.876954,-98.876953s-98.876953,44.494629 -98.876953,98.876953s44.494629,98.876953 98.876953,98.876953zm0,65.917969c-54.382324,0.000001 -98.876953,44.494629 -98.876953,98.876954s44.494629,98.876953 98.876953,98.876953s98.876954,-44.494629 98.876954,-98.876953s-44.494629,-98.876953 -98.876954,-98.876953l0,-0.000001zm0,263.671875c-54.382324,0 -98.876953,44.494629 -98.876953,98.876953s44.494629,98.876954 98.876953,98.876954s98.876954,-44.494629 98.876954,-98.876954s-44.494629,-98.876953 -98.876954,-98.876953z"/></g></svg>