<svg xmlns="http://www.w3.org/2000/svg" xmlns:xlink="http://www.w3.org/1999/xlink" width="16" height="16" class="icon" p-id="2681" t="1553261320181" version="1.1" viewBox="0 0 1024 1024"><defs><style type="text/css"/></defs><path fill="#555" d="M479.04101537 336.16406226C533.42333959 336.16406226 577.9179685 291.66943335 577.9179685 237.28710912S533.42333959 138.41015601 479.04101537 138.41015601 380.16406225 182.9047849 380.16406225 237.28710912 424.65869115 336.16406226 479.04101537 336.16406226z m0 65.91796924C424.65869115 402.0820315 380.16406225 446.57666042 380.16406225 500.95898464S424.65869115 599.83593775 479.04101537 599.83593775 577.9179685 555.34130886 577.9179685 500.95898464 533.42333959 402.0820315 479.04101537 402.0820315z m0 263.67187476C424.65869115 665.75390626 380.16406225 710.24853517 380.16406225 764.63085939S424.65869115 863.50781251 479.04101537 863.50781251 577.9179685 819.0131836 577.9179685 764.63085939 533.42333959 665.75390626 479.04101537 665.75390626z" p-id="2682"/></svg>