<?xml version="1.0" standalone="no"?><!DOCTYPE svg PUBLIC "-//W3C//DTD SVG 1.1//EN" "http://www.w3.org/Graphics/SVG/1.1/DTD/svg11.dtd"><svg t="1552124835470" class="icon" style="" viewBox="0 0 1024 1024" version="1.1" xmlns="http://www.w3.org/2000/svg" p-id="1851" xmlns:xlink="http://www.w3.org/1999/xlink" width="16" height="16"><defs><style type="text/css"></style></defs><path d="M511.9815623 905.5039045c-217.33944346 0-393.54887373-176.14467422-393.54887373-393.48501768 0-217.3430417 176.20943028-393.52279131 393.54887374-393.52279132 217.37721797 0 393.58574912 176.17975049 393.58574912 393.52279132 0 217.34124258-176.20853027 393.4850168-393.58574912 393.48501767z m0.03867364-729.4180544c-185.27618232 0-335.99419628 150.58400362-335.99419541 335.65152832 0 185.06482646 150.71801309 336.36924141 335.99419541 336.3692414 185.27438408 0 335.99149805-151.30351582 335.99149804-336.3692414 0-185.06842383-150.71711396-335.65152832-335.99149804-335.65152832z" fill="#555555" p-id="1852"></path><path d="M456.63308896 697.39310323c-9.13060987 0-17.71618799-3.55708828-24.17560927-10.0165087L304.86009043 559.82147715c-6.46211865-6.46211865-10.01830781-15.04589854-10.01830694-24.1765084s3.55708828-17.71618799 10.01830693-24.17650839c6.45942041-6.45942041 15.04589854-10.01650869 24.17471016-10.0165087 9.13060987 0 17.71528886 3.5579874 24.1756084 10.0165087l103.40199404 103.40019492 230.99758331-230.99668419c6.46031953-6.45942041 15.04589854-10.01740781 24.17740752-10.01740869 9.12881075 0 17.71438974 3.5579874 24.17560927 10.01740869 13.32896308 13.33166133 13.32896308 35.02135547 0 48.35121768L480.80959737 687.37749365c-6.46031953 6.45852129-15.04769766 10.01560957-24.17650841 10.01560958z" fill="#555555" p-id="1853"></path></svg>
