<?xml version="1.0" standalone="no"?><!DOCTYPE svg PUBLIC "-//W3C//DTD SVG 1.1//EN" "http://www.w3.org/Graphics/SVG/1.1/DTD/svg11.dtd"><svg t="1552124831695" class="icon" style="" viewBox="0 0 1024 1024" version="1.1" xmlns="http://www.w3.org/2000/svg" p-id="1727" xmlns:xlink="http://www.w3.org/1999/xlink" width="16" height="16"><defs><style type="text/css"></style></defs><path d="M510.80111695 113.37756347c-220.03665161 0-398.4090271 178.37155151-398.40902711 398.40820314s178.37319946 398.4090271 398.40902711 398.40902709 398.40820313-178.37319946 398.40820312-398.40902709S730.83776856 113.37756347 510.80111695 113.37756347zM730.23379516 426.1871643l-259.85687255 259.85687257c-8.04446411 8.04446411-18.58804321 12.06710815-29.13162232 12.06710815-10.5435791 0-21.0871582-4.02264404-29.13162232-12.06710815l-145.12664794-145.12664796c-16.08892823-16.08810425-16.08892823-42.17431641 0-58.26324462 16.08892823-16.08892823 42.17431641-16.08975219 58.2640686 0L441.24530029 598.64834594l230.72525025-230.72525024c16.08975219-16.08892823 42.17431641-16.08892823 58.2640686 0C746.32354737 384.0128479 746.32354737 410.09823609 730.23379516 426.1871643z" fill="#555555" p-id="1728"></path></svg>
