<svg xmlns="http://www.w3.org/2000/svg" xmlns:xlink="http://www.w3.org/1999/xlink" width="16" height="16" class="icon" p-id="2064" t="1552976852263" version="1.1" viewBox="0 0 1024 1024"><defs><style type="text/css"/></defs><path fill="#555" d="M120.921875 150.25097656h782.15537109v175.98515625H120.92099609V150.25185547zM120.921875 365.34482422h234.646875v234.64599609H120.92099609V365.34570312zM120.921875 639.09863281h234.646875v234.64775391H120.92099609V639.09951172zM394.67568359 365.34482422h234.64775391v234.64599609H394.67480469V365.34570312zM394.67568359 639.09863281h234.64775391v234.64775391H394.67480469V639.09951172zM668.43037109 365.34482422H903.078125v234.64599609H668.43037109V365.34570312zM668.43037109 639.09863281H903.078125v234.64775391H668.43037109V639.09951172z" p-id="2065"/><path fill="#555" d="M120.921875 150.25097656h782.15537109v175.98515625H120.92099609V150.25185547zM120.921875 365.34482422h234.646875v234.64599609H120.92099609V365.34570312zM120.921875 639.09863281h234.646875v234.64775391H120.92099609V639.09951172zM394.67568359 365.34482422h234.64775391v234.64599609H394.67480469V365.34570312zM394.67568359 639.09863281h234.64775391v234.64775391H394.67480469V639.09951172zM668.43037109 365.34482422H903.078125v234.64599609H668.43037109V365.34570312zM668.43037109 639.09863281H903.078125v234.64775391H668.43037109V639.09951172z" p-id="2066"/></svg>