<?xml version="1.0" standalone="no"?><!DOCTYPE svg PUBLIC "-//W3C//DTD SVG 1.1//EN" "http://www.w3.org/Graphics/SVG/1.1/DTD/svg11.dtd"><svg t="1552976852263" class="icon" style="" viewBox="0 0 1024 1024" version="1.1" xmlns="http://www.w3.org/2000/svg" p-id="2064" xmlns:xlink="http://www.w3.org/1999/xlink" width="16" height="16"><defs><style type="text/css"></style></defs><path d="M120.921875 150.25097656h782.15537109v175.98515625H120.92099609V150.25185547zM120.921875 365.34482422h234.646875v234.64599609H120.92099609V365.34570312zM120.921875 639.09863281h234.646875v234.64775391H120.92099609V639.09951172zM394.67568359 365.34482422h234.64775391v234.64599609H394.67480469V365.34570312zM394.67568359 639.09863281h234.64775391v234.64775391H394.67480469V639.09951172zM668.43037109 365.34482422H903.078125v234.64599609H668.43037109V365.34570312zM668.43037109 639.09863281H903.078125v234.64775391H668.43037109V639.09951172z" fill="#555555" p-id="2065"></path><path d="M120.921875 150.25097656h782.15537109v175.98515625H120.92099609V150.25185547zM120.921875 365.34482422h234.646875v234.64599609H120.92099609V365.34570312zM120.921875 639.09863281h234.646875v234.64775391H120.92099609V639.09951172zM394.67568359 365.34482422h234.64775391v234.64599609H394.67480469V365.34570312zM394.67568359 639.09863281h234.64775391v234.64775391H394.67480469V639.09951172zM668.43037109 365.34482422H903.078125v234.64599609H668.43037109V365.34570312zM668.43037109 639.09863281H903.078125v234.64775391H668.43037109V639.09951172z" fill="#555555" p-id="2066"></path></svg>
