<?xml version="1.0" standalone="no"?><!DOCTYPE svg PUBLIC "-//W3C//DTD SVG 1.1//EN" "http://www.w3.org/Graphics/SVG/1.1/DTD/svg11.dtd"><svg t="1552051519744" class="icon" style="" viewBox="0 0 1024 1024" version="1.1" xmlns="http://www.w3.org/2000/svg" p-id="1142" xmlns:xlink="http://www.w3.org/1999/xlink" width="16" height="16"><defs><style type="text/css"></style></defs><path d="M790.57506796 377.87126329l-26.65378749 496.96416484c-0.85979922 18.0557914-16.33619218 32.67238437-34.3919836 32.67238437H294.47070312c-18.0557914 0-33.53218437-14.61659297-34.39198359-32.67238437l-26.65378749-496.96416484c-0.85979922-18.9155914 13.75679375-35.25178358 32.67238437-36.11158281 18.9155914-0.85979922 35.25178358 13.75679375 36.11158282 32.67238437l24.93418827 464.29178046h370.57362422l24.93418828-464.29178046c0.85979922-18.9155914 17.19599218-33.53218437 36.11158282-32.67238437 18.0557914 0.85979922 32.67238437 17.19599218 31.81258514 36.11158281zM881.713825 262.65811797c0 18.9155914-15.47639296 34.39198359-34.3919836 34.3919836H176.6781586c-18.9155914 0-34.39198359-15.47639296-34.3919836-34.3919836s15.47639296-34.39198359 34.3919836-34.3919836h189.15591092V150.88417109c0-16.33619218 11.17739454-25.7939875 27.51358673-25.7939875h237.3046875C646.98853594 125.09018358 658.16593048 134.54797891 658.16593048 150.88417109v77.38196328h189.15591092c18.9155914 0 34.39198359 15.47639296 34.3919836 34.3919836z m-455.69378438-34.3919836h171.95991876V185.2761547H426.02004062v42.98997967z m14.61659298 558.86973516c17.19599218 0 30.09298594-16.33619218 30.09298594-32.67238437l-8.5979961-371.43342422c0-16.33619218-13.75679375-30.09298594-30.95278515-30.09298516-16.33619218 0-30.09298594 13.75679375-29.23318595 30.95278515l8.5979961 372.29322345c0 16.33619218 13.75679375 30.95278517 30.09298516 30.95278516z m141.86693282 0c16.33619218 0 30.09298594-13.75679375 30.09298593-30.09298593l8.59799609-371.43342345c0-16.33619218-12.89699375-30.95278517-29.23318672-30.95278593-17.19599218 0-30.09298594 12.89699375-30.95278515 29.23318671l-8.5979961 371.43342345c-0.85979922 17.19599218 12.89699375 31.81258515 30.09298594 31.81258515-0.85979922 0-0.85979922 0 0 0z" fill="#555555" p-id="1143"></path></svg>
