<?xml version="1.0" standalone="no"?><!DOCTYPE svg PUBLIC "-//W3C//DTD SVG 1.1//EN" "http://www.w3.org/Graphics/SVG/1.1/DTD/svg11.dtd"><svg t="1561534651630" class="icon" viewBox="0 0 1024 1024" version="1.1" xmlns="http://www.w3.org/2000/svg" p-id="2995" xmlns:xlink="http://www.w3.org/1999/xlink" width="16" height="16"><defs><style type="text/css"></style></defs><path d="M544 222.93333333V693.33333333c0 19.2-12.8 32-32 32s-32-12.8-32-32V232.53333333L358.4 354.13333333c-12.8 12.8-32 12.8-44.8 0-12.8-12.8-12.8-32 0-44.8l156.8-156.8c25.6-25.6 64-25.6 89.6 0L716.8 309.33333333c12.8 12.8 12.8 32 0 44.8-12.8 12.8-32 12.8-44.8 0L544 222.93333333zM832 629.33333333c0-19.2 12.8-32 32-32s32 12.8 32 32v160c0 54.4-41.6 96-96 96H224c-54.4 0-96-41.6-96-96V629.33333333c0-19.2 12.8-32 32-32s32 12.8 32 32v160c0 19.2 12.8 32 32 32h576c19.2 0 32-12.8 32-32V629.33333333z" fill="#555555" p-id="2996"></path></svg>
