<?xml version="1.0" standalone="no"?><!DOCTYPE svg PUBLIC "-//W3C//DTD SVG 1.1//EN" "http://www.w3.org/Graphics/SVG/1.1/DTD/svg11.dtd"><svg t="1552117129235" class="icon" style="" viewBox="0 0 1024 1024" version="1.1" xmlns="http://www.w3.org/2000/svg" p-id="1706" xmlns:xlink="http://www.w3.org/1999/xlink" width="16" height="16"><defs><style type="text/css"></style></defs><path d="M345.76339601 201.653743c23.812335-29.02710399 53.188386-47.91222 80.49121899-60.170404 13.139252-5.89833699 26.89658-10.092869 40.590464-12.890588 15.123442-3.089361 30.255071-4.466732 44.416606-4.551666l0.080841 0 0.65696301-0.00102299 0.65696299 0.00102299 0.080841 0c14.160511 0.084934 29.293163 1.462305 44.416606 4.551666 13.693884 2.797719 27.451212 6.99225099 40.590464 12.890588 27.30385599 12.258185 56.679907 31.14330099 80.490196 60.170404 18.919908 23.063275 34.198893 52.305273 41.966811 89.353051 5.51255 26.299993 7.27366 55.945173 4.76349001 84.95385699-2.381234 27.532053-8.610098 54.831816-19.12457001 78.63801101-5.730515 12.974499-13.662161 28.105105-24.632004 45.04491601-8.782014 13.558807-19.429515 28.128641-32.336476 43.44446499-2.281973 4.033873-10.17985 20.395516 5.688559 29.872355 18.24248001 10.894118 62.590524 37.636179 103.817484 62.845327 27.00812001 16.514115 53.829999 33.085536 73.069179 45.339628 14.01110799 8.9263 30.843472 20.166295 44.925189 34.5724 15.692401 16.056698 27.712155 35.672454 29.18366901 59.82555001 0.431835 7.098675 0.63138 15.47239 0.66412599 24.22984399 0.035816 9.70708299-0.157589 19.24532-0.47788401 27.582195-0.740874 19.30364799-4.740978 36.205597-14.56880999 49.252751-10.76518101 14.288424-27.00505101 22.817682-51.15303 23.351847l-0.404206 0c-94.84718199-0.343831-203.76073-0.514723-327.617619-0.514723-123.854842 0-232.770438 0.170892-327.615573 0.514723l-0.405229 0c-24.14798-0.53416599-40.38784899-9.063423-51.152007-23.351847-9.827833-13.04715399-13.82896-29.949103-14.569834-49.252751-0.319272-8.336876-0.512676-17.876136-0.476861-27.584242 0.031722-8.755408 0.23331399-17.12912199 0.664126-24.227798 1.471514-24.153096 13.49024601-43.767829 29.18366901-59.82555001 14.08171701-14.406105 30.913057-25.647123 44.92518899-34.57239999 19.23713301-12.252045 46.056965-28.822442 73.062016-45.334511 41.22900699-25.211195 85.581144-51.956326 103.823624-62.850443 15.869433-9.47786199 7.971555-25.838482 5.689582-29.872355-12.905938-15.31582401-23.554462-29.885658-32.336476-43.44446499-10.970866-16.93981101-18.902512-32.070416-24.632004-45.04491601-10.514471-23.80619499-16.743336-51.10595799-19.12457-78.63801101-2.51016999-29.008684-0.74803701-58.652841 4.76349-84.95385699C311.56450301 253.959016 326.84348801 224.717018 345.76339601 201.653743M443.06549 179.147146c-22.37561301 10.045797-46.330188 25.375947-65.457828 48.693002-14.978133 18.259876-27.12273099 41.641399-33.398668 71.573105-4.67446299 22.298865-6.138814 47.762817-3.956102 72.992431 2.01795999 23.318078 7.145747 46.107107 15.730263 65.542762 5.055133 11.44568001 11.96347299 24.65963301 21.39937899 39.22741999 8.03704701 12.407588 17.994839 25.961278 30.33284201 40.50245901l0.88822999 1.04684199 0.72757101 1.13587001c0.10335399 0.159636 36.399001 55.583946-18.717294 88.49859001-17.200754 10.269901-60.733223 36.53817099-103.50128199 62.68876099-28.656667 17.522072-55.79167701 34.263361-72.41528601 44.849464-12.012591 7.653307-26.351158 17.196661-37.49086899 28.593222-9.52902699 9.746992-16.783245 20.962427-17.545608 33.476439-0.438998 7.208169-0.63752 14.642488-0.66412601 21.80256199-0.032746 8.77689699 0.159636 17.87101899 0.476861 26.13012401 0.431835 11.237949 2.191922 20.321838 6.327102 25.81289899 3.194762 4.242627 9.113565 6.80089299 18.937305 7.02499701 124.479059-0.449231 233.327116-0.67435899 327.260485-0.67435899 93.935416 0 202.78244901 0.225127 327.262532 0.67435899 9.822716-0.225127 15.742543-2.783393 18.937305-7.02499701 4.13518-5.49003801 5.895267-14.57392701 6.327102-25.81289899 0.316202-8.25910401 0.509606-17.353227 0.476861-26.12807699-0.02660601-7.16212-0.226151-14.59644-0.664126-21.80460801-0.762363-12.515035-8.017604-23.728424-17.545608-33.476439-11.139711-11.39758401-25.477254-20.940938-37.490869-28.593222-16.622586-10.588149-43.763736-27.330462-72.421426-44.854581-42.76601301-26.148543-86.295412-52.41374301-103.494119-62.683644-55.11629499-32.914644-18.820648-88.338954-18.718317-88.49859l0.72859401-1.13587 0.88822999-1.046842c12.33800301-14.54118099 22.295795-28.094872 30.33284201-40.502459 9.434883-14.567787 16.344247-27.78174 21.39937899-39.22742 8.584516-19.436678 13.71230301-42.224684 15.730263-65.542762 2.181689-25.229614 0.718361-50.693566-3.956102-72.992431-6.274914-29.931706-18.420535-53.31323001-33.398668-71.57310499-19.126616-23.317055-43.082214-38.647205-65.457828-48.69300201-10.289344-4.61818101-21.150716-7.92039-32.024367-10.141988-12.443403-2.541893-24.814152-3.67469301-36.334533-3.744277l0 0-0.57612099-0.001023-0.57612102 0.001023 0 0c-11.521404 0.068562-23.892153 1.201361-36.33453299 3.744277C464.21518199 171.225733 453.352787 174.528965 443.06549 179.147146z" fill="#555555" p-id="1707"></path></svg>
