<?xml version="1.0" standalone="no"?><!DOCTYPE svg PUBLIC "-//W3C//DTD SVG 1.1//EN" "http://www.w3.org/Graphics/SVG/1.1/DTD/svg11.dtd"><svg t="1552124850731" class="icon" style="" viewBox="0 0 1024 1024" version="1.1" xmlns="http://www.w3.org/2000/svg" p-id="2350" xmlns:xlink="http://www.w3.org/1999/xlink" width="16" height="16"><defs><style type="text/css"></style></defs><path d="M512 116.4921875C293.6796875 116.4921875 116.4921875 293.6796875 116.4921875 512s177.1875 395.5078125 395.5078125 395.5078125 395.5078125-177.1875 395.5078125-395.5078125S730.3203125 116.4921875 512 116.4921875z m0 743.5546875C320.57421875 860.046875 163.953125 703.42578125 163.953125 512S320.57421875 163.953125 512 163.953125s348.046875 156.62109375 348.046875 348.046875-156.62109375 348.046875-348.046875 348.046875z" fill="#555555" p-id="2351"></path><path d="M519.91015625 597.4296875c17.40234375 0 31.640625-14.23828125 31.640625-31.640625V322.15624999c0-17.40234375-14.23828125-31.640625-31.640625-31.64062499s-31.640625 14.23828125-31.640625 31.64062501v243.63281249c0 17.40234375 14.23828125 31.640625 31.640625 31.640625z" fill="#555555" p-id="2352"></path><path d="M480.359375 678.11328125a39.55078125 39.55078125 0 1 0 79.1015625 0 39.55078125 39.55078125 0 1 0-79.1015625 0Z" fill="#555555" p-id="2353"></path></svg>
