<?xml version="1.0" standalone="no"?><!DOCTYPE svg PUBLIC "-//W3C//DTD SVG 1.1//EN" "http://www.w3.org/Graphics/SVG/1.1/DTD/svg11.dtd"><svg t="1552992831841" class="icon" style="" viewBox="0 0 1024 1024" version="1.1" xmlns="http://www.w3.org/2000/svg" p-id="2248" xmlns:xlink="http://www.w3.org/1999/xlink" width="16" height="16"><defs><style type="text/css"></style></defs><path d="M763.4 451.8c0-195.2-105-261.6-203.2-276.4 0-1 0.2-2 0.2-3.2 0-24.6-21.8-44.2-48.4-44.2-26.6 0-47.6 19.6-47.6 44.2 0 1.2 0 2.2 0.2 3.2-98.4 15-204 81.6-204 276.8 0 227.6-56.6 252-132.6 316l768 0C820.4 704 763.4 679.4 763.4 451.8zM512.4 896c53.6 0 97.6-39.8 103.4-86L409 810C414.6 856.2 458.8 896 512.4 896z" fill="#555555" p-id="2249"></path></svg>
