<?xml version="1.0" standalone="no"?><!DOCTYPE svg PUBLIC "-//W3C//DTD SVG 1.1//EN" "http://www.w3.org/Graphics/SVG/1.1/DTD/svg11.dtd"><svg t="1553257716216" class="icon" style="" viewBox="0 0 1024 1024" version="1.1" xmlns="http://www.w3.org/2000/svg" p-id="3577" xmlns:xlink="http://www.w3.org/1999/xlink" width="16" height="16"><defs><style type="text/css"></style></defs><path d="M123.51401837-710.58664899" fill="#a7a7a7" p-id="3578"></path><path d="M820.26262302 211.4904021L693.14252952 211.4904021 693.14252952 155.19475776c0-12.80619277-10.38121161-23.18740357-23.18740357-23.18740358s-23.18740357 10.38121161-23.18740357 23.18740357l0 56.29564435-270.66024261 0L376.10747893 155.19475776c0-12.80619277-10.38121161-23.18740357-23.18740355-23.18740358s-23.18740357 10.38121161-23.18740356 23.18740357l0 56.29564435L206.71801285 211.4904021c-35.80894034 0-64.94159426 29.13265393-64.94159427 64.94159427L141.77641775 815.38736548c0 35.80894034 29.13265393 64.94159426 64.94159428 64.94159427l613.54376724 0c35.80894034 0 64.94159426-29.13265393 64.94159427-64.94159427L885.20337436 276.43115344C885.20337436 240.62305603 856.07072043 211.4904021 820.26262302 211.4904021zM206.71801285 245.21753516l123.01465897 0 0 63.43567849c0 12.80619277 10.38121161 23.18740357 23.18740357 23.18740357s23.18740357-10.38121161 23.18740355-23.18740357l0-63.43567849 270.66024262 0 0 63.43567849c0 12.80619277 10.38121161 23.18740357 23.18740357 23.18740357s23.18740357-10.38121161 23.18740356-23.18740357l0-63.43567849 127.1200935 0c17.2117988 0 31.21446121 14.00266242 31.21446121 31.21446121l0 103.07264831L175.50439374 379.50464468 175.50439374 276.43115344C175.50439374 259.22019758 189.50705615 245.21753516 206.71801285 245.21753516zM820.26262302 846.60098459L206.71801285 846.60098459c-17.2117988 0-31.21446121-14.00181949-31.21446121-31.21446121L175.50355081 413.23093399 851.4762413 413.23093399 851.4762413 815.38736548C851.4762413 832.5991651 837.47442182 846.60098459 820.26262302 846.60098459z" fill="#a7a7a7" p-id="3579"></path><path d="M357.50190567 529.9875231l-72.51333591 0c-12.80619277 0-23.18740357 10.38121161-23.18740357 23.18740357s10.38121161 23.18740357 23.18740357 23.18740355l72.51333591 0c12.80619277 0 23.18740357-10.38121161 23.18740356-23.18740355S370.30809845 529.9875231 357.50190567 529.9875231z" fill="#a7a7a7" p-id="3580"></path><path d="M549.74656442 529.9875231l-72.5133359 0c-12.80619277 0-23.18740357 10.38121161-23.18740357 23.18740357s10.38121161 23.18740357 23.18740357 23.18740355l72.5133359 0c12.80619277 0 23.18740357-10.38121161 23.18740357-23.18740355S562.55275637 529.9875231 549.74656442 529.9875231z" fill="#a7a7a7" p-id="3581"></path><path d="M741.99122235 529.9875231l-72.5133359 0c-12.80619277 0-23.18740357 10.38121161-23.18740357 23.18740357s10.38121161 23.18740357 23.18740357 23.18740355l72.51333589 0c12.80619277 0 23.18740357-10.38121161 23.18740357-23.18740355S754.7974143 529.9875231 741.99122235 529.9875231z" fill="#a7a7a7" p-id="3582"></path><path d="M356.01200962 674.36326157l-72.51333592 0c-12.80619277 0-23.18740357 10.38121161-23.18740356 23.18740356s10.38121161 23.18740357 23.18740356 23.18740356l72.51333592 0c12.80619277 0 23.18740357-10.38121161 23.18740356-23.18740356S368.81820239 674.36326157 356.01200962 674.36326157z" fill="#a7a7a7" p-id="3583"></path><path d="M548.25666837 674.36326157l-72.51333591 0c-12.80619277 0-23.18740357 10.38121161-23.18740357 23.18740356s10.38121161 23.18740357 23.18740357 23.18740356l72.51333591 0c12.80619277 0 23.18740357-10.38121161 23.18740356-23.18740356S561.06201739 674.36326157 548.25666837 674.36326157z" fill="#a7a7a7" p-id="3584"></path><path d="M740.5013263 674.36326157l-72.51333592 0c-12.80619277 0-23.18740357 10.38121161-23.18740355 23.18740356s10.38121161 23.18740357 23.18740355 23.18740356l72.51333592 0c12.80619277 0 23.18740357-10.38121161 23.18740356-23.18740356S753.30667532 674.36326157 740.5013263 674.36326157z" fill="#a7a7a7" p-id="3585"></path></svg>
