<?xml version="1.0" standalone="no"?><!DOCTYPE svg PUBLIC "-//W3C//DTD SVG 1.1//EN" "http://www.w3.org/Graphics/SVG/1.1/DTD/svg11.dtd"><svg t="1552115445364" class="icon" style="" viewBox="0 0 1024 1024" version="1.1" xmlns="http://www.w3.org/2000/svg" p-id="1451" xmlns:xlink="http://www.w3.org/1999/xlink" width="16" height="16"><defs><style type="text/css"></style></defs><path d="M372.9 175.6h485.8v97.7H372.9zM372.9 463.1h485.8v97.8H372.9zM372.9 750.7h485.8v97.7H372.9zM270.6 451.2c-21.7-12.5-48.5-12.5-70.2 0-21.8 12.6-35.1 35.7-35.1 60.8s13.4 48.2 35.1 60.8c21.7 12.5 48.5 12.5 70.2 0 21.7-12.5 35.1-35.7 35.1-60.8s-13.4-48.2-35.1-60.8zM270.6 174.6c-21.7-12.5-48.5-12.5-70.2 0a70.21 70.21 0 0 0-35.1 60.8c0 25.1 13.4 48.2 35.1 60.8 21.7 12.5 48.5 12.5 70.2 0 21.7-12.5 35.1-35.7 35.1-60.8 0-25.1-13.4-48.2-35.1-60.8zM270.6 727.8c-21.7-12.5-48.5-12.5-70.2 0-21.8 12.5-35.1 35.7-35.1 60.8s13.4 48.2 35.1 60.8c21.7 12.5 48.5 12.5 70.2 0 21.7-12.5 35.1-35.7 35.1-60.8s-13.4-48.2-35.1-60.8z" fill="#555555" p-id="1452"></path></svg>
