<?xml version="1.0" standalone="no"?><!DOCTYPE svg PUBLIC "-//W3C//DTD SVG 1.1//EN" "http://www.w3.org/Graphics/SVG/1.1/DTD/svg11.dtd"><svg t="1552124839952" class="icon" style="" viewBox="0 0 1024 1024" version="1.1" xmlns="http://www.w3.org/2000/svg" p-id="1976" xmlns:xlink="http://www.w3.org/1999/xlink" width="16" height="16"><defs><style type="text/css"></style></defs><path d="M512 907.5078125C295.7890625 907.5078125 116.4921875 728.2109375 116.4921875 512S295.7890625 116.4921875 512 116.4921875s395.5078125 179.296875 395.5078125 395.5078125-179.296875 395.5078125-395.5078125 395.5078125z m0-738.28125C322.15624999 169.2265625 169.2265625 322.15624999 169.2265625 512s152.9296875 342.7734375 342.7734375 342.7734375 342.7734375-152.9296875 342.7734375-342.7734375S701.84375001 169.2265625 512 169.2265625z" fill="#555555" p-id="1977"></path><path d="M353.796875 364.34374999c5.2734375-10.546875 26.3671875-10.546875 36.9140625 2e-8l300.5859375 300.58593749c10.546875 10.546875 10.546875 26.3671875 0 36.91406249-10.546875 10.546875-26.3671875 10.546875-36.9140625 0L353.796875 401.2578125c-10.546875-10.546875-10.546875-26.3671875 0-36.91406251z" fill="#555555" p-id="1978"></path><path d="M353.796875 701.84375001c-10.546875-10.546875-10.546875-26.3671875 0-36.91406251l300.5859375-300.58593751c10.546875-10.546875 26.3671875-10.546875 36.9140625 2e-8 10.546875 10.546875 10.546875 26.3671875 0 36.91406249l-300.5859375 300.58593751c-10.546875 10.546875-31.640625 10.546875-36.9140625-2e-8z" fill="#555555" p-id="1979"></path></svg>
