<?xml version="1.0" standalone="no"?><!DOCTYPE svg PUBLIC "-//W3C//DTD SVG 1.1//EN" "http://www.w3.org/Graphics/SVG/1.1/DTD/svg11.dtd"><svg t="1553081655207" class="icon" style="" viewBox="0 0 1024 1024" version="1.1" xmlns="http://www.w3.org/2000/svg" p-id="2342" xmlns:xlink="http://www.w3.org/1999/xlink" width="16" height="16"><defs><style type="text/css"></style></defs><path d="M759.98339844 528.21582031v268.9453125c0 22.93945313-18.58886719 41.52832031-41.52832032 41.52832031h-123.79394531V630.65234375c0-11.46972656-9.09667969-20.56640625-20.56640625-20.56640625H449.90527344c-11.46972656 0-20.56640625 9.09667969-20.56640625 20.56640625v207.64160156H305.54492187c-22.93945313 0-41.52832031-18.58886719-41.52832031-41.52832031v-268.9453125H222.09277344v310.47363281c0 22.93945313 13.44726563 41.52832031 36.38671875 41.52832031h176.39648437v-0.79101562h35.99121094v-238.09570313h82.265625l0.79101563 238.09570313h35.99121093v0.79101562h176.39648438c22.93945313 0 36.38671875-18.58886719 36.38671875-41.52832031v-310.078125h-42.71484375zM512 144.17773437c-5.53710938 0-11.07421875 1.97753906-15.02929688 5.93261719L142.20019531 517.53710938c-7.91015625 8.30566406-7.91015625 21.35742188 0.39550781 29.26757812 3.95507813 3.95507813 9.09667969 5.93261719 14.23828125 5.93261719 5.53710938 0 10.67871094-1.97753906 15.02929688-6.328125l340.13671875-352.00195313 340.13671875 352.00195313c3.95507813 4.35058594 9.4921875 6.328125 15.02929688 6.328125 5.14160156 0 10.28320313-1.97753906 14.23828124-5.93261719 8.30566406-7.91015625 8.30566406-20.96191406 0.39550782-29.26757812L527.02929688 150.11035156c-3.95507813-3.95507813-9.4921875-5.93261719-15.02929688-5.93261719z" fill="#555555" p-id="2343"></path></svg>
