<?xml version="1.0" standalone="no"?><!DOCTYPE svg PUBLIC "-//W3C//DTD SVG 1.1//EN" "http://www.w3.org/Graphics/SVG/1.1/DTD/svg11.dtd"><svg t="1552130683320" class="icon" style="" viewBox="0 0 1024 1024" version="1.1" xmlns="http://www.w3.org/2000/svg" p-id="1907" xmlns:xlink="http://www.w3.org/1999/xlink" width="16" height="16"><defs><style type="text/css"></style></defs><path d="M857.89013333 722.10773333c-56.1152-39.3728-157.2864-80.5888-217.1904-119.04-22.5792-15.8208-29.696-90.0096-29.696-90.0096s22.272-4.6592 51.0976-50.176c17.6128-26.4192 38.912-120.3712 19.1488-134.5024 13.3632-53.4528-8.448-114.2784-50.1248-157.6448-95.7952-79.0016-206.5408-47.0528-232.3968-17.2032-24.0128 8.448-52.736 48.5888-56.4736 62.3616-15.1552 27.2896-22.272 55.6544-17.1008 113.4592-3.3792 69.9904 4.7616 99.1744 20.9408 131.072 20.7872 45.1584 48.9984 55.808 48.9984 55.808s-2.048 64.1536-19.4048 87.2448c-56.7296 38.4512-172.288 83.4048-219.8528 114.4832-26.8288 17.5104-32.1024 37.5296-32.1024 104.3968 0.4096 26.1632 30.3616 63.4368 31.1296 68.4544 88.1152 0.0512 199.7824 0.3072 321.792 0.4096-35.584-115.3536-55.9616-263.3728-55.9616-263.3728l93.0816 22.8352 93.0816-22.8352s-20.3776 148.0192-55.9616 263.3728c132.7616-0.0512 212.736-0.3584 307.5584-0.4608 10.9568-1.9456 33.28-43.8272 33.28-68.4032 0-64.256-3.584-79.0528-33.8432-100.2496z" fill="#555555" p-id="1908"></path></svg>
