<?xml version="1.0" standalone="no"?><!DOCTYPE svg PUBLIC "-//W3C//DTD SVG 1.1//EN" "http://www.w3.org/Graphics/SVG/1.1/DTD/svg11.dtd"><svg t="1552976820786" class="icon" style="" viewBox="0 0 1024 1024" version="1.1" xmlns="http://www.w3.org/2000/svg" p-id="2720" xmlns:xlink="http://www.w3.org/1999/xlink" width="16" height="16"><defs><style type="text/css"></style></defs><path d="M198.5909375 726.7278125h174.358125c11.5809375 0.18375 20.8078125 9.7125 20.6325 21.2859375-0.1828125 11.319375-9.3140625 20.44125-20.6325 20.6240625h-195.20625c-11.5575 0.06375-20.983125-9.2428125-21.054375-20.7909375V349.7825h-20.8471875c-11.62875 0-21.0459375-9.4171875-21.0459375-21.0459375V245.140625c0-11.62125 9.4171875-21.046875 21.0459375-21.046875h83.604375c11.6203125 0.0159375 21.0215625 9.4340625 21.0375 21.046875v83.6034375c0 11.62125-9.4171875 21.0384375-21.0375 21.0384375h-20.848125v153.5915625h174.3675c11.5640625-0.0159375 20.95125 9.3534375 20.9671875 20.9259375 0.0065625 11.5725-9.361875 20.95875-20.9353125 20.9746875H198.5984375v181.453125h-0.0075zM324.215 245.140625c-0.0075-11.6128125 9.4096875-21.046875 21.03-21.046875h530.4103125c11.611875 0.0159375 21.03 9.4340625 21.046875 21.046875v83.6034375c0 11.62125-9.4171875 21.0384375-21.046875 21.0384375H345.261875c-11.62125 0-21.0459375-9.4171875-21.054375-21.0384375V245.140625h0.0075z m153.5840625 237.376875c-0.0234375-11.604375 9.3609375-21.03 20.9671875-21.0534375H875.65625c11.611875 0.0234375 21.03 9.433125 21.046875 21.0534375v83.595c0 11.581875-9.3946875 20.985-20.983125 20.985H498.9078125c-11.62125 0.03-21.0778125-9.361875-21.1096875-20.985v-83.595h0.0009375z m0 223.3640625c0-11.5978125 9.3853125-21.045 21.1096875-21.045H875.65625c11.611875 0.0140625 21.03 9.4321875 21.046875 21.045v83.5959375c0.0290625 11.589375-9.3215625 21.0159375-20.9034375 21.0459375H498.9078125c-11.62125 0.0309375-21.0778125-9.354375-21.1096875-20.9746875v-83.6671875h0.0009375z" fill="#555555" p-id="2721"></path></svg>
