<?xml version="1.0" standalone="no"?><!DOCTYPE svg PUBLIC "-//W3C//DTD SVG 1.1//EN" "http://www.w3.org/Graphics/SVG/1.1/DTD/svg11.dtd"><svg t="1552117125906" class="icon" style="" viewBox="0 0 1024 1024" version="1.1" xmlns="http://www.w3.org/2000/svg" p-id="1582" xmlns:xlink="http://www.w3.org/1999/xlink" width="16" height="16"><defs><style type="text/css"></style></defs><path d="M345.763396 201.654766c23.812335-29.027104 53.188386-47.91222 80.491219-60.169381 13.139252-5.898337 26.89658-10.092869 40.590464-12.890588 15.122419-3.089361 30.256094-4.466732 44.416606-4.552689l0.080841 0 0.656963-0.001023 0.656963 0.001023 0.080841 0c14.160511 0.085958 29.293163 1.463328 44.416606 4.552689 13.693884 2.797719 27.451212 6.992251 40.590464 12.890588 27.303856 12.257162 56.679907 31.142278 80.490196 60.169381 18.919908 23.064298 34.198893 52.305273 41.965787 89.354074 5.513574 26.299993 7.27366 55.94415 4.76349 84.952834-2.38021 27.533077-8.609075 54.831816-19.123546 78.636988-5.731538 12.974499-13.662161 28.107151-24.632004 45.046962-8.782014 13.558807-19.430538 28.127617-32.337499 43.444465-2.281973 4.033873-10.17985 20.394493 5.689582 29.870308 18.24248 10.894118 62.590524 37.638225 103.817484 62.847373 27.00812 16.514115 53.829999 33.085536 73.069179 45.339628 14.011108 8.9263 30.843472 20.164249 44.925189 34.5724 15.693424 16.056698 27.712155 35.671431 29.182646 59.82555 0.432859 7.096628 0.63138 15.47239 0.665149 24.228821 0.035816 9.708106-0.157589 19.244296-0.477884 27.582195-0.740874 19.304671-4.740978 36.20662-14.56881 49.251727-10.765181 14.289448-27.005051 22.819728-51.15303 23.352871l-0.405229 0c-94.846158-0.343831-203.744357-0.515746-327.616596-0.515746s-232.770438 0.171915-327.616596 0.515746l-0.404206 0c-24.14798-0.533143-40.387849-9.063423-51.152007-23.352871-9.827833-13.045107-13.82896-29.947056-14.56881-49.251727-0.320295-8.337899-0.5137-17.875113-0.477884-27.583219 0.031722-8.755408 0.233314-17.130146 0.664126-24.227798 1.471514-24.15412 13.490246-43.767829 29.183669-59.82555 14.08274-14.408151 30.913057-25.647123 44.925189-34.5724 19.237133-12.253068 46.056965-28.822442 73.062016-45.336558 41.229007-25.209148 85.580121-51.955302 103.823624-62.850443 15.869433-9.476839 7.971555-25.836435 5.689582-29.870308-12.904914-15.316847-23.554462-29.885658-32.336476-43.444465-10.970866-16.939811-18.902512-32.072463-24.632004-45.046962-10.514471-23.805172-16.743336-51.103912-19.12457-78.636988-2.51017-29.008684-0.748037-58.652841 4.76349-84.952834C311.565527 253.960039 326.843488 224.718041 345.763396 201.654766" fill="#555555" p-id="1583"></path></svg>
