<?xml version="1.0" standalone="no"?><!DOCTYPE svg PUBLIC "-//W3C//DTD SVG 1.1//EN" "http://www.w3.org/Graphics/SVG/1.1/DTD/svg11.dtd"><svg t="1552124854549" class="icon" style="" viewBox="0 0 1024 1024" version="1.1" xmlns="http://www.w3.org/2000/svg" p-id="2482" xmlns:xlink="http://www.w3.org/1999/xlink" width="16" height="16"><defs><style type="text/css"></style></defs><path d="M512 116.4921875q80.18920898 0 153.38287354 31.54174805t126.1175537 84.46563721 84.46563721 126.1175537T907.5078125 512t-31.54174805 153.38287354-84.46563721 126.1175537-126.1175537 84.46563721T512 907.5078125t-153.38287354-31.54174805-126.1175537-84.46563721-84.46563721-126.1175537T116.4921875 512t31.54174805-153.38287354 84.46563721-126.1175537 126.1175537-84.46563721T512 116.4921875z m0 530.96923828q-24.91699219 0-42.41821289 17.52593994t-17.52593994 42.4182129 17.52593994 42.41821289T512 767.34973145t42.41821289-17.52593994 17.52593994-42.41821289-17.52593994-42.4182129T512 647.46142578z m-1.95281982-46.71936036q21.40686036 0 36.58447265-15.1776123t15.1776123-36.21368408V307.99212646q0-21.01135254-15.1776123-36.21368407t-36.58447265-15.17761231-36.21368409 15.17761231-14.78210449 36.21368407v241.35864258q0 21.01135254 14.78210449 36.21368408t36.21368409 15.1776123z" fill="#555555" p-id="2483"></path></svg>
