<?xml version="1.0" standalone="no"?><!DOCTYPE svg PUBLIC "-//W3C//DTD SVG 1.1//EN" "http://www.w3.org/Graphics/SVG/1.1/DTD/svg11.dtd"><svg t="1552050606732" class="icon" style="" viewBox="0 0 1024 1024" version="1.1" xmlns="http://www.w3.org/2000/svg" p-id="1052" xmlns:xlink="http://www.w3.org/1999/xlink" width="16" height="16"><defs><style type="text/css"></style></defs><path d="M870.59375 362.65625c-19.828125-48.515625-48.515625-91.96875-85.640625-129.09375s-80.578125-66.234375-129.09375-85.640625C609.03125 129.359375 559.671875 119.65625 509.046875 119.65625c-50.625 0-99.984375 9.703125-146.8125 28.6875C314.140625 167.75 270.6875 196.4375 233.5625 233.984375c-37.125 37.125-66.234375 80.578125-85.640625 129.09375-18.984375 46.40625-28.6875 95.765625-28.6875 146.390625s9.703125 99.984375 28.6875 146.8125c19.828125 48.515625 48.515625 91.96875 85.640625 129.09375s80.578125 66.234375 129.09375 85.640625c46.828125 18.984375 96.1875 28.6875 146.8125 28.6875 50.625 0 99.984375-9.703125 146.8125-28.6875 48.515625-19.828125 91.96875-48.515625 129.09375-85.640625s65.8125-80.578125 85.640625-129.09375c18.984375-46.828125 28.6875-96.1875 28.6875-146.8125-0.421875-50.625-10.125-99.984375-29.109375-146.8125z m-166.640625 348.046875c-6.75 6.75-15.1875 10.125-24.046875 10.125s-17.296875-3.375-24.046875-10.125L507.78125 562.203125l-146.390625 146.390625c-6.75 6.75-15.1875 10.125-24.046875 10.125s-17.296875-3.375-24.046875-10.125c-13.078125-13.078125-13.078125-34.59375 0-48.09375l146.390625-146.390625-143.859375-143.859375c-13.078125-13.078125-13.078125-34.59375 0-48.09375 13.078125-13.078125 34.59375-13.078125 48.09375 0L507.78125 466.4375l145.96875-145.96875c13.078125-13.078125 34.59375-13.078125 48.09375 0 13.078125 13.078125 13.078125 34.59375 0 48.09375l-145.96875 145.96875 148.5 148.5c13.078125 13.078125 13.078125 34.59375-0.421875 47.671875z" fill="#555555" p-id="1053"></path></svg>
