<?xml version="1.0" standalone="no"?><!DOCTYPE svg PUBLIC "-//W3C//DTD SVG 1.1//EN" "http://www.w3.org/Graphics/SVG/1.1/DTD/svg11.dtd"><svg t="1553503365748" class="icon" style="" viewBox="0 0 1024 1024" version="1.1" xmlns="http://www.w3.org/2000/svg" p-id="3049" xmlns:xlink="http://www.w3.org/1999/xlink" width="16" height="16"><defs><style type="text/css"></style></defs><path d="M851.47753906 821.81445313c8.23974609 0 15.24353028 2.88391114 21.01135255 8.6517334S881.140625 843.23779297 881.140625 851.47753906s-2.88391114 15.24353028-8.6517334 21.01135255S859.71728516 881.140625 851.47753906 881.140625H172.52246094c-8.23974609 0-15.24353028-2.88391114-21.01135255-8.6517334S142.859375 859.71728516 142.859375 851.47753906s2.88391114-15.24353028 8.6517334-21.01135254S164.28271484 821.81445313 172.52246094 821.81445313h678.95507812zM863.8371582 225.25683594l-65.09399414-65.09399414c-12.11242676-11.53564453-26.11999512-17.3034668-42.02270508-17.3034668s-29.91027833 5.76782227-42.02270507 17.3034668L387.57983398 487.28076172c-2.71911622 2.71911622-4.69665528 5.76782227-5.76782226 9.0637207L299.41455078 689.97851563c-2.22473145 5.52062989-2.71911622 10.87646484-1.64794922 16.06750488 1.071167 5.19104004 3.46069336 9.64050293 7.00378419 13.18359374s7.99255372 5.93261719 13.18359374 7.00378419c5.19104004 1.071167 10.546875 0.57678223 16.06750488-1.64794922l194.45800782-82.39746094c2.71911622-1.071167 5.52062989-3.04870606 8.23974609-5.76782226l327.11791992-327.11791993c11.53564453-12.11242676 17.3034668-26.11999512 17.3034668-42.02270507s-5.76782227-29.91027833-17.3034668-42.02270508zM498.81640625 590.27758789l-112.88452148 47.79052734 47.79052734-112.88452148 229.88891602-229.88891602 65.09399414 65.09399415-229.88891602 229.88891601z m271.91162109-271.91162109l-65.09399414-65.09399414 51.08642578-51.08642579 65.09399415 65.09399415-51.08642579 51.08642578z" fill="#555555" p-id="3050"></path></svg>
