<?xml version="1.0" standalone="no"?><!DOCTYPE svg PUBLIC "-//W3C//DTD SVG 1.1//EN" "http://www.w3.org/Graphics/SVG/1.1/DTD/svg11.dtd"><svg t="1553677078030" class="icon" style="" viewBox="0 0 1024 1024" version="1.1" xmlns="http://www.w3.org/2000/svg" p-id="9135" xmlns:xlink="http://www.w3.org/1999/xlink" width="32" height="32"><defs><style type="text/css"></style></defs><path d="M120.533333 877.333333c6.933333 0 11.2 4.266667 11.2 11.2s-4.266667 11.2-11.2 11.2H11.2c-6.933333 0-11.2-4.266667-11.2-11.2s4.266667-11.2 11.2-11.2h109.333333z m840-86.4c6.933333 0 11.2 4.266667 11.2 11.2s-4.266667 11.2-11.2 11.2h-190.4v29.333334c0 31.466667-25.066667 56.533333-56.533333 56.533333h-34.133333c0 6.933333-3.2 13.866667-8 19.2-11.2 11.2-27.733333 11.2-39.466667 0l-18.133333-19.2H177.066667c-6.933333 0-11.2-4.266667-11.2-11.2s4.266667-11.2 11.2-11.2h49.6c-7.466667-10.133333-11.2-21.866667-11.2-34.133333V277.333333c0-32 24.533333-57.066667 56.533333-57.066666h35.733333v-29.333334c0-31.466667 25.066667-56.533333 56.533334-56.533333h443.2c31.466667 0 56.533333 25.066667 56.533333 56.533333v565.333334c0 12.266667-4.266667 25.066667-11.2 34.133333h107.733333z m-178.133333 0h23.466667c19.2 0 33.6-14.933333 33.6-34.133333v-565.333333c0-19.2-14.933333-34.133333-33.6-34.133334h-442.666667c-19.2 0-33.6 14.933333-33.6 34.133334v29.333333H714.666667c31.466667 0 56.533333 25.066667 56.533333 56.533333v514.133334h11.2zM517.333333 762.666667c38.4-38.4 38.4-100.8 0-139.2-18.133333-18.133333-42.666667-28.8-68.8-28.8s-50.666667 10.133333-68.8 28.8c-38.4 38.4-38.4 100.8 0 139.2 18.133333 18.133333 42.666667 28.8 68.8 28.8 25.066667-0.533333 49.6-10.666667 68.8-28.8z m-118.4-104c2.666667 1.066667 3.2 4.266667 2.666667 8-8 13.866667-9.066667 31.466667-3.2 46.4 1.066667 3.2 0 5.333333-3.2 8h-2.666667c-2.666667 0-4.266667-1.066667-5.333333-3.2-6.933333-18.133333-5.333333-40 3.2-56.533334 1.6-2.666667 5.333333-4.266667 8.533333-2.666666z m349.333334 184.533333V277.333333c0-19.2-14.933333-34.133333-34.133334-34.133333H270.4c-19.2 0-34.133333 14.933333-34.133333 34.133333v566.4c0 19.2 14.933333 34.133333 34.133333 34.133334H592l-31.466667-31.466667c-7.466667-7.466667-10.666667-19.2-6.933333-29.333333l-27.733333-29.333334c-21.333333 18.133333-48.533333 27.733333-76.266667 28.8-33.066667 0-61.866667-12.266667-85.866667-34.666666-46.933333-46.4-46.933333-123.2-0.533333-170.133334l0.533333-0.533333c22.4-22.4 52.8-34.666667 85.866667-34.666667 33.066667 0 61.866667 12.266667 85.866667 34.666667 44.266667 44.266667 45.866667 115.733333 8 162.666667l29.333333 29.333333c10.133333-3.2 21.866667-2.666667 29.333333 6.933333l69.866667 70.4h44.266667c16.533333-3.2 32-18.133333 32-37.333333zM340.8 359.466667c-6.933333 0-11.2-4.266667-11.2-11.2s4.266667-11.2 11.2-11.2h197.333333c6.933333 0 11.2 4.266667 11.2 11.2s-4.266667 11.2-11.2 11.2h-197.333333z m262.4 49.6c6.933333 0 11.2 4.266667 11.2 11.2s-4.266667 11.2-11.2 11.2H344c-6.933333 0-11.2-4.266667-11.2-11.2s4.266667-11.2 11.2-11.2h259.2zM476.8 482.133333c6.933333 0 11.2 4.266667 11.2 11.2s-4.266667 11.2-11.2 11.2h-138.666667c-6.933333 0-11.2-4.266667-11.2-11.2s4.266667-11.2 11.2-11.2h138.666667zM45.866667 232.533333c12.266667 0 22.4 10.133333 22.4 22.4 0 12.266667-10.133333 22.4-22.4 22.4s-22.4-10.133333-22.4-22.4c0-11.733333 10.133333-22.4 22.4-22.4z m0 68.8c25.066667 0 45.333333-20.266667 45.333333-45.333333s-20.266667-45.333333-45.333333-45.333333S0.533333 230.933333 0.533333 256c0.533333 24.533333 20.8 44.266667 45.333334 45.333333z m944 19.2c-6.933333 0-11.2-4.266667-11.2-11.2s4.266667-11.2 11.2-11.2 11.2 4.266667 11.2 11.2c0 5.866667-4.266667 11.2-11.2 11.2z m0-45.333333c-19.2 0-33.6 14.933333-33.6 34.133333 0 19.2 14.933333 34.133333 33.6 34.133334s33.6-14.933333 33.6-34.133334c0-20.266667-14.4-34.133333-33.6-34.133333zM165.866667 156.8c0 6.933333 4.266667 11.2 11.2 11.2s11.2-4.266667 11.2-11.2v-13.866667h13.866666c6.933333 0 11.2-4.266667 11.2-11.2s-4.266667-11.2-11.2-11.2h-13.866666V106.666667c0-6.933333-4.266667-11.2-11.2-11.2s-11.2 4.266667-11.2 11.2v13.866666h-13.866667c-6.933333 0-11.2 4.266667-11.2 11.2s4.266667 11.2 11.2 11.2h13.866667v13.866667z m-27.733334 317.333333h-13.866666v-13.866666c0-6.933333-4.266667-11.2-11.2-11.2s-11.2 4.266667-11.2 11.2v13.866666h-13.866667c-6.933333 0-11.2 4.266667-11.2 11.2s4.266667 11.2 11.2 11.2h13.866667v13.866667c0 6.933333 4.266667 11.2 11.2 11.2s11.2-4.266667 11.2-11.2v-12.8h13.866666c6.933333 0 11.2-4.266667 11.2-11.2 1.066667-7.466667-4.266667-12.266667-11.2-12.266667z m0 0" fill="#555555" p-id="9136"></path><path d="M976 505.6h-13.866667v-13.866667c0-6.933333-4.266667-11.2-11.2-11.2s-11.2 4.266667-11.2 11.2v13.866667h-13.866666c-6.933333 0-11.2 4.266667-11.2 11.2s4.266667 11.2 11.2 11.2h13.866666v13.866667c0 6.933333 4.266667 11.2 11.2 11.2s11.2-4.266667 11.2-11.2V528h13.866667c6.933333 0 11.2-4.266667 11.2-11.2 0-6.4-4.8-11.2-11.2-11.2" fill="#555555" p-id="9137"></path></svg>
