<?xml version="1.0" standalone="no"?><!DOCTYPE svg PUBLIC "-//W3C//DTD SVG 1.1//EN" "http://www.w3.org/Graphics/SVG/1.1/DTD/svg11.dtd"><svg t="1552130686354" class="icon" style="" viewBox="0 0 1024 1024" version="1.1" xmlns="http://www.w3.org/2000/svg" p-id="2031" xmlns:xlink="http://www.w3.org/1999/xlink" width="16" height="16"><defs><style type="text/css"></style></defs><path d="M514.15683594 921.75488281c-199.18916016 0-360.66533203-20.03730469-360.66533203-96.03457031 0-20.48378906 12.04980469-49.22138672 33.0890625-80.17382813 1.07402344-1.68925781 2.30625-3.31611328 3.4883789-4.96845703 41.03085937-58.08955078 113.74189453-122.57929687 202.82695313-156.18691406v-43.33798828h-154.29023438l27.55107422-58.10800781c0 0 14.13632812-92.63056641 57.25283203-254.66572266 22.66787109-85.13701172 143.84355469-128.04257813 191.35722657-128.04257812 47.4890625 0 168.83876953 42.9046875 191.446875 128.04257812 43.14814453 161.86025391 55.87470703 254.66572266 55.87470703 254.66572266l27.55107422 58.10800781h-154.29111329v43.31162109c88.90751953 33.52060547 161.51835937 97.80820313 202.61337891 155.80810547 1.32539063 1.84130859 2.7 3.66064453 3.89355469 5.54853516 20.96542969 30.88212891 32.96689453 59.55380859 32.96689453 79.99892578-0.00087891 75.99814453-161.47617188 96.03457031-360.66533203 96.03457031zM634.20400391 612.18564453c-0.94394531 38.25615234-54.23994141 69.12509766-120.04716797 69.12509766s-119.10410156-30.86894531-120.04716797-69.12509766c-23.95019531 13.85947266-40.246875 39.46552734-40.246875 69.12509766 0 44.26347656 35.88398437 80.14658203 80.14658203 80.14658203s80.14658203-35.88398437 80.14658203-80.14658203c0 44.26347656 35.88398437 80.14658203 80.14658203 80.14658203s80.14658203-35.88398437 80.14658203-80.14658203c0-29.65957031-16.2984375-55.26474609-40.246875-69.12509766z" fill="#555555" p-id="2032"></path></svg>
