<?xml version="1.0" standalone="no"?><!DOCTYPE svg PUBLIC "-//W3C//DTD SVG 1.1//EN" "http://www.w3.org/Graphics/SVG/1.1/DTD/svg11.dtd"><svg t="1552124846708" class="icon" style="" viewBox="0 0 1024 1024" version="1.1" xmlns="http://www.w3.org/2000/svg" p-id="2226" xmlns:xlink="http://www.w3.org/1999/xlink" width="16" height="16"><defs><style type="text/css"></style></defs><path d="M512 116.4921875C293.62715911 116.4921875 116.4921875 293.57463073 116.4921875 512s177.13497161 395.5078125 395.5078125 395.5078125 395.5078125-177.08244323 395.5078125-395.5078125S730.37284089 116.4921875 512 116.4921875z m-49.35968399 346.09560012C462.64031601 435.27148437 484.73622512 413.12304687 512 413.12304687c27.31630325 0 49.46474075 22.1484375 49.46474075 49.46474075V709.75390625c0 27.26377488-22.1484375 49.46474075-49.46474075 49.46474075-27.26377488 0-49.35968399-22.20096589-49.35968399-49.46474075V462.58778762zM512 364.50185012c-27.26377488 0-49.35968399-22.20096589-49.35968399-49.46474074 0-27.26377488 22.09590911-49.46474075 49.35968399-49.46474075 27.31630325 0 49.46474075 22.20096589 49.46474075 49.46474075 0 27.26377488-22.1484375 49.46474075-49.46474075 49.46474074z" fill="#555555" p-id="2227"></path></svg>
