<?xml version="1.0" standalone="no"?><!DOCTYPE svg PUBLIC "-//W3C//DTD SVG 1.1//EN" "http://www.w3.org/Graphics/SVG/1.1/DTD/svg11.dtd"><svg t="1552115908701" class="icon" style="" viewBox="0 0 1024 1024" version="1.1" xmlns="http://www.w3.org/2000/svg" p-id="1457" xmlns:xlink="http://www.w3.org/1999/xlink" width="16" height="16"><defs><style type="text/css"></style></defs><path d="M463.58043862 776.77921632c-175.35586504 0-317.52163007-142.16576576-317.5216308-317.53971759C146.05880782 283.88363442 288.22457357 141.71786865 463.58043862 141.71786865c175.37395184 0 317.5397176 142.16576576 317.53971758 317.52163008 0 175.37395184-142.16576576 317.5397176-317.53971758 317.5397176z m0-72.34899006c135.41922203 0 245.19072753-109.7715055 245.19072752-245.19072753 0-135.40113522-109.7895923-245.17264-245.19072752-245.17264-135.40113522 0-245.17264 109.7715055-245.17264073 245.17264 0 135.41922203 109.7715055 245.19072753 245.17264073 245.19072753z" fill="#555555" p-id="1458"></path><path d="M625.61007249 672.41619301l56.83705081-56.83705078 198.95525711 198.95525712-56.8370508 56.83705079-198.95525712-198.95525713Z" fill="#555555" p-id="1459"></path></svg>
